<svg width="123" height="36" viewBox="0 0 123 36" fill="none" xmlns="http://www.w3.org/2000/svg">
<path d="M21.0625 35C20.6458 34.1875 20.3438 33.1771 20.1562 31.9688C17.9688 34.4062 15.125 35.625 11.625 35.625C8.3125 35.625 5.5625 34.6667 3.375 32.75C1.20833 30.8333 0.125 28.4167 0.125 25.5C0.125 21.9167 1.44792 19.1667 4.09375 17.25C6.76042 15.3333 10.6042 14.3646 15.625 14.3438H19.7812V12.4062C19.7812 10.8438 19.375 9.59375 18.5625 8.65625C17.7708 7.71875 16.5104 7.25 14.7812 7.25C13.2604 7.25 12.0625 7.61458 11.1875 8.34375C10.3333 9.07292 9.90625 10.0729 9.90625 11.3438H0.875C0.875 9.38542 1.47917 7.57292 2.6875 5.90625C3.89583 4.23958 5.60417 2.9375 7.8125 2C10.0208 1.04167 12.5 0.5625 15.25 0.5625C19.4167 0.5625 22.7188 1.61458 25.1562 3.71875C27.6146 5.80208 28.8438 8.73958 28.8438 12.5312V27.1875C28.8646 30.3958 29.3125 32.8229 30.1875 34.4688V35H21.0625ZM13.5938 28.7188C14.9271 28.7188 16.1562 28.4271 17.2812 27.8438C18.4062 27.2396 19.2396 26.4375 19.7812 25.4375V19.625H16.4062C11.8854 19.625 9.47917 21.1875 9.1875 24.3125L9.15625 24.8438C9.15625 25.9688 9.55208 26.8958 10.3438 27.625C11.1354 28.3542 12.2188 28.7188 13.5938 28.7188ZM49.8438 28.3438C51.5104 28.3438 52.8646 27.8854 53.9062 26.9688C54.9479 26.0521 55.4896 24.8333 55.5312 23.3125H64C63.9792 25.6042 63.3542 27.7083 62.125 29.625C60.8958 31.5208 59.2083 33 57.0625 34.0625C54.9375 35.1042 52.5833 35.625 50 35.625C45.1667 35.625 41.3542 34.0938 38.5625 31.0312C35.7708 27.9479 34.375 23.6979 34.375 18.2812V17.6875C34.375 12.4792 35.7604 8.32292 38.5312 5.21875C41.3021 2.11458 45.1042 0.5625 49.9375 0.5625C54.1667 0.5625 57.5521 1.77083 60.0938 4.1875C62.6562 6.58333 63.9583 9.78125 64 13.7812H55.5312C55.4896 12.0312 54.9479 10.6146 53.9062 9.53125C52.8646 8.42708 51.4896 7.875 49.7812 7.875C47.6771 7.875 46.0833 8.64583 45 10.1875C43.9375 11.7083 43.4062 14.1875 43.4062 17.625V18.5625C43.4062 22.0417 43.9375 24.5417 45 26.0625C46.0625 27.5833 47.6771 28.3438 49.8438 28.3438ZM84.7188 35.625C79.7604 35.625 75.7188 34.1042 72.5938 31.0625C69.4896 28.0208 67.9375 23.9688 67.9375 18.9062V18.0312C67.9375 14.6354 68.5938 11.6042 69.9062 8.9375C71.2188 6.25 73.0729 4.1875 75.4688 2.75C77.8854 1.29167 80.6354 0.5625 83.7188 0.5625C88.3438 0.5625 91.9792 2.02083 94.625 4.9375C97.2917 7.85417 98.625 11.9896 98.625 17.3438V21.0312H77.0938C77.3854 23.2396 78.2604 25.0104 79.7188 26.3438C81.1979 27.6771 83.0625 28.3438 85.3125 28.3438C88.7917 28.3438 91.5104 27.0833 93.4688 24.5625L97.9062 29.5312C96.5521 31.4479 94.7188 32.9479 92.4062 34.0312C90.0938 35.0938 87.5312 35.625 84.7188 35.625ZM83.6875 7.875C81.8958 7.875 80.4375 8.47917 79.3125 9.6875C78.2083 10.8958 77.5 12.625 77.1875 14.875H89.75V14.1562C89.7083 12.1562 89.1667 10.6146 88.125 9.53125C87.0833 8.42708 85.6042 7.875 83.6875 7.875ZM122.781 9.65625C121.552 9.48958 120.469 9.40625 119.531 9.40625C116.115 9.40625 113.875 10.5625 112.812 12.875V35H103.781V1.1875H112.312L112.562 5.21875C114.375 2.11458 116.885 0.5625 120.094 0.5625C121.094 0.5625 122.031 0.697917 122.906 0.96875L122.781 9.65625Z" fill="#7EFF51"/>
</svg>
