<svg width="162" height="48" viewBox="0 0 162 48" fill="none" xmlns="http://www.w3.org/2000/svg">
<path d="M29.75 37.625H13.3125L10.1875 47H0.21875L17.1562 1.5H25.8438L42.875 47H32.9062L29.75 37.625ZM15.8438 30.0312H27.2188L21.5 13L15.8438 30.0312ZM70.7188 35.0625C70.7188 33.2917 70.0938 31.9375 68.8438 31C67.5938 30.0417 65.3438 29.0417 62.0938 28C58.8438 26.9375 56.2708 25.8958 54.375 24.875C49.2083 22.0833 46.625 18.3229 46.625 13.5938C46.625 11.1354 47.3125 8.94792 48.6875 7.03125C50.0833 5.09375 52.0729 3.58333 54.6562 2.5C57.2604 1.41667 60.1771 0.875 63.4062 0.875C66.6562 0.875 69.5521 1.46875 72.0938 2.65625C74.6354 3.82292 76.6042 5.47917 78 7.625C79.4167 9.77083 80.125 12.2083 80.125 14.9375H70.75C70.75 12.8542 70.0938 11.2396 68.7812 10.0938C67.4688 8.92708 65.625 8.34375 63.25 8.34375C60.9583 8.34375 59.1771 8.83333 57.9062 9.8125C56.6354 10.7708 56 12.0417 56 13.625C56 15.1042 56.7396 16.3438 58.2188 17.3438C59.7188 18.3438 61.9167 19.2812 64.8125 20.1562C70.1458 21.7604 74.0312 23.75 76.4688 26.125C78.9062 28.5 80.125 31.4583 80.125 35C80.125 38.9375 78.6354 42.0312 75.6562 44.2812C72.6771 46.5104 68.6667 47.625 63.625 47.625C60.125 47.625 56.9375 46.9896 54.0625 45.7188C51.1875 44.4271 48.9896 42.6667 47.4688 40.4375C45.9688 38.2083 45.2188 35.625 45.2188 32.6875H54.625C54.625 37.7083 57.625 40.2188 63.625 40.2188C65.8542 40.2188 67.5938 39.7708 68.8438 38.875C70.0938 37.9583 70.7188 36.6875 70.7188 35.0625ZM120.938 1.5V31.4688C120.938 36.4479 119.375 40.3854 116.25 43.2812C113.146 46.1771 108.896 47.625 103.5 47.625C98.1875 47.625 93.9688 46.2188 90.8438 43.4062C87.7188 40.5938 86.125 36.7292 86.0625 31.8125V1.5H95.4375V31.5312C95.4375 34.5104 96.1458 36.6875 97.5625 38.0625C99 39.4167 100.979 40.0938 103.5 40.0938C108.771 40.0938 111.448 37.3229 111.531 31.7812V1.5H120.938ZM152.219 35.0625C152.219 33.2917 151.594 31.9375 150.344 31C149.094 30.0417 146.844 29.0417 143.594 28C140.344 26.9375 137.771 25.8958 135.875 24.875C130.708 22.0833 128.125 18.3229 128.125 13.5938C128.125 11.1354 128.812 8.94792 130.188 7.03125C131.583 5.09375 133.573 3.58333 136.156 2.5C138.76 1.41667 141.677 0.875 144.906 0.875C148.156 0.875 151.052 1.46875 153.594 2.65625C156.135 3.82292 158.104 5.47917 159.5 7.625C160.917 9.77083 161.625 12.2083 161.625 14.9375H152.25C152.25 12.8542 151.594 11.2396 150.281 10.0938C148.969 8.92708 147.125 8.34375 144.75 8.34375C142.458 8.34375 140.677 8.83333 139.406 9.8125C138.135 10.7708 137.5 12.0417 137.5 13.625C137.5 15.1042 138.24 16.3438 139.719 17.3438C141.219 18.3438 143.417 19.2812 146.312 20.1562C151.646 21.7604 155.531 23.75 157.969 26.125C160.406 28.5 161.625 31.4583 161.625 35C161.625 38.9375 160.135 42.0312 157.156 44.2812C154.177 46.5104 150.167 47.625 145.125 47.625C141.625 47.625 138.438 46.9896 135.562 45.7188C132.688 44.4271 130.49 42.6667 128.969 40.4375C127.469 38.2083 126.719 35.625 126.719 32.6875H136.125C136.125 37.7083 139.125 40.2188 145.125 40.2188C147.354 40.2188 149.094 39.7708 150.344 38.875C151.594 37.9583 152.219 36.6875 152.219 35.0625Z" fill="#1E1F20"/>
</svg>
