<svg width="232" height="48" viewBox="0 0 232 48" fill="none" xmlns="http://www.w3.org/2000/svg">
<path d="M37.7812 31.8438C37.4271 36.7396 35.6146 40.5938 32.3438 43.4062C29.0938 46.2188 24.8021 47.625 19.4688 47.625C13.6354 47.625 9.04167 45.6667 5.6875 41.75C2.35417 37.8125 0.6875 32.4167 0.6875 25.5625V22.7812C0.6875 18.4062 1.45833 14.5521 3 11.2188C4.54167 7.88542 6.73958 5.33333 9.59375 3.5625C12.4688 1.77083 15.8021 0.875 19.5938 0.875C24.8438 0.875 29.0729 2.28125 32.2812 5.09375C35.4896 7.90625 37.3438 11.8542 37.8438 16.9375H28.4688C28.2396 14 27.4167 11.875 26 10.5625C24.6042 9.22917 22.4688 8.5625 19.5938 8.5625C16.4688 8.5625 14.125 9.6875 12.5625 11.9375C11.0208 14.1667 10.2292 17.6354 10.1875 22.3438V25.7812C10.1875 30.6979 10.9271 34.2917 12.4062 36.5625C13.9062 38.8333 16.2604 39.9688 19.4688 39.9688C22.3646 39.9688 24.5208 39.3125 25.9375 38C27.375 36.6667 28.1979 34.6146 28.4062 31.8438H37.7812ZM41.9375 29.7812C41.9375 26.4271 42.5833 23.4375 43.875 20.8125C45.1667 18.1875 47.0208 16.1562 49.4375 14.7188C51.875 13.2812 54.6979 12.5625 57.9062 12.5625C62.4688 12.5625 66.1875 13.9583 69.0625 16.75C71.9583 19.5417 73.5729 23.3333 73.9062 28.125L73.9688 30.4375C73.9688 35.625 72.5208 39.7917 69.625 42.9375C66.7292 46.0625 62.8438 47.625 57.9688 47.625C53.0938 47.625 49.1979 46.0625 46.2812 42.9375C43.3854 39.8125 41.9375 35.5625 41.9375 30.1875V29.7812ZM50.9688 30.4375C50.9688 33.6458 51.5729 36.1042 52.7812 37.8125C53.9896 39.5 55.7188 40.3438 57.9688 40.3438C60.1562 40.3438 61.8646 39.5104 63.0938 37.8438C64.3229 36.1562 64.9375 33.4688 64.9375 29.7812C64.9375 26.6354 64.3229 24.1979 63.0938 22.4688C61.8646 20.7396 60.1354 19.875 57.9062 19.875C55.6979 19.875 53.9896 20.7396 52.7812 22.4688C51.5729 24.1771 50.9688 26.8333 50.9688 30.4375ZM97.8438 37.6562C97.8438 36.5521 97.2917 35.6875 96.1875 35.0625C95.1042 34.4167 93.3542 33.8438 90.9375 33.3438C82.8958 31.6562 78.875 28.2396 78.875 23.0938C78.875 20.0938 80.1146 17.5938 82.5938 15.5938C85.0938 13.5729 88.3542 12.5625 92.375 12.5625C96.6667 12.5625 100.094 13.5729 102.656 15.5938C105.24 17.6146 106.531 20.2396 106.531 23.4688H97.5C97.5 22.1771 97.0833 21.1146 96.25 20.2812C95.4167 19.4271 94.1146 19 92.3438 19C90.8229 19 89.6458 19.3438 88.8125 20.0312C87.9792 20.7188 87.5625 21.5938 87.5625 22.6562C87.5625 23.6562 88.0312 24.4688 88.9688 25.0938C89.9271 25.6979 91.5312 26.2292 93.7812 26.6875C96.0312 27.125 97.9271 27.625 99.4688 28.1875C104.24 29.9375 106.625 32.9688 106.625 37.2812C106.625 40.3646 105.302 42.8646 102.656 44.7812C100.01 46.6771 96.5938 47.625 92.4062 47.625C89.5729 47.625 87.0521 47.125 84.8438 46.125C82.6562 45.1042 80.9375 43.7188 79.6875 41.9688C78.4375 40.1979 77.8125 38.2917 77.8125 36.25H86.375C86.4583 37.8542 87.0521 39.0833 88.1562 39.9375C89.2604 40.7917 90.7396 41.2188 92.5938 41.2188C94.3229 41.2188 95.625 40.8958 96.5 40.25C97.3958 39.5833 97.8438 38.7188 97.8438 37.6562ZM120.938 13.1875L121.219 16.9688C123.615 14.0312 126.854 12.5625 130.938 12.5625C135.292 12.5625 138.281 14.2812 139.906 17.7188C142.281 14.2812 145.667 12.5625 150.062 12.5625C153.729 12.5625 156.458 13.6354 158.25 15.7812C160.042 17.9062 160.938 21.1146 160.938 25.4062V47H151.875V25.4375C151.875 23.5208 151.5 22.125 150.75 21.25C150 20.3542 148.677 19.9062 146.781 19.9062C144.073 19.9062 142.198 21.1979 141.156 23.7812L141.188 47H132.156V25.4688C132.156 23.5104 131.771 22.0938 131 21.2188C130.229 20.3438 128.917 19.9062 127.062 19.9062C124.5 19.9062 122.646 20.9688 121.5 23.0938V47H112.469V13.1875H120.938ZM166.5 29.7812C166.5 26.4271 167.146 23.4375 168.438 20.8125C169.729 18.1875 171.583 16.1562 174 14.7188C176.438 13.2812 179.26 12.5625 182.469 12.5625C187.031 12.5625 190.75 13.9583 193.625 16.75C196.521 19.5417 198.135 23.3333 198.469 28.125L198.531 30.4375C198.531 35.625 197.083 39.7917 194.188 42.9375C191.292 46.0625 187.406 47.625 182.531 47.625C177.656 47.625 173.76 46.0625 170.844 42.9375C167.948 39.8125 166.5 35.5625 166.5 30.1875V29.7812ZM175.531 30.4375C175.531 33.6458 176.135 36.1042 177.344 37.8125C178.552 39.5 180.281 40.3438 182.531 40.3438C184.719 40.3438 186.427 39.5104 187.656 37.8438C188.885 36.1562 189.5 33.4688 189.5 29.7812C189.5 26.6354 188.885 24.1979 187.656 22.4688C186.427 20.7396 184.698 19.875 182.469 19.875C180.26 19.875 178.552 20.7396 177.344 22.4688C176.135 24.1771 175.531 26.8333 175.531 30.4375ZM222.406 37.6562C222.406 36.5521 221.854 35.6875 220.75 35.0625C219.667 34.4167 217.917 33.8438 215.5 33.3438C207.458 31.6562 203.438 28.2396 203.438 23.0938C203.438 20.0938 204.677 17.5938 207.156 15.5938C209.656 13.5729 212.917 12.5625 216.938 12.5625C221.229 12.5625 224.656 13.5729 227.219 15.5938C229.802 17.6146 231.094 20.2396 231.094 23.4688H222.062C222.062 22.1771 221.646 21.1146 220.812 20.2812C219.979 19.4271 218.677 19 216.906 19C215.385 19 214.208 19.3438 213.375 20.0312C212.542 20.7188 212.125 21.5938 212.125 22.6562C212.125 23.6562 212.594 24.4688 213.531 25.0938C214.49 25.6979 216.094 26.2292 218.344 26.6875C220.594 27.125 222.49 27.625 224.031 28.1875C228.802 29.9375 231.188 32.9688 231.188 37.2812C231.188 40.3646 229.865 42.8646 227.219 44.7812C224.573 46.6771 221.156 47.625 216.969 47.625C214.135 47.625 211.615 47.125 209.406 46.125C207.219 45.1042 205.5 43.7188 204.25 41.9688C203 40.1979 202.375 38.2917 202.375 36.25H210.938C211.021 37.8542 211.615 39.0833 212.719 39.9375C213.823 40.7917 215.302 41.2188 217.156 41.2188C218.885 41.2188 220.188 40.8958 221.062 40.25C221.958 39.5833 222.406 38.7188 222.406 37.6562Z" fill="#F72222"/>
</svg>
