<svg width="186" height="49" viewBox="0 0 186 49" fill="none" xmlns="http://www.w3.org/2000/svg">
<path d="M9.40625 48H0.53125L8.875 0H17.7188L9.40625 48ZM32.9688 48.625C30.0104 48.6042 27.3854 47.8854 25.0938 46.4688C22.8229 45.0312 21.125 43.0729 20 40.5938C18.875 38.0938 18.4375 35.3438 18.6875 32.3438L18.7812 31.0938C19.0938 27.8021 20.0521 24.7812 21.6562 22.0312C23.2604 19.2812 25.3229 17.1667 27.8438 15.6875C30.3646 14.1875 33.1562 13.4792 36.2188 13.5625C40.5729 13.6458 43.8646 15.25 46.0938 18.375C48.3438 21.4792 49.1979 25.4167 48.6562 30.1875L48.1562 34.0312H27.4375C27.3542 36.2188 27.8854 37.9688 29.0312 39.2812C30.1771 40.5938 31.7396 41.2708 33.7188 41.3125C36.9271 41.3958 39.7396 40.1562 42.1562 37.5938L46.1875 42.5938C44.9167 44.5104 43.0833 46.0104 40.6875 47.0938C38.2917 48.1562 35.7188 48.6667 32.9688 48.625ZM35.7812 20.8438C34.1562 20.8021 32.7083 21.3125 31.4375 22.375C30.1875 23.4375 29.0625 25.2812 28.0625 27.9062H40.1875L40.375 27.0938C40.5 26.2604 40.5104 25.4688 40.4062 24.7188C40.1979 23.5104 39.6875 22.5729 38.875 21.9062C38.0625 21.2188 37.0312 20.8646 35.7812 20.8438ZM64.7188 14.1562L63.9688 18.1562C66.6771 15.0104 69.9583 13.4792 73.8125 13.5625C77 13.625 79.3542 14.7917 80.875 17.0625C82.3958 19.3333 82.9479 22.4792 82.5312 26.5L78.9688 48H70.1562L73.7812 26.4062C73.8854 25.5938 73.9062 24.8542 73.8438 24.1875C73.5729 22.0625 72.2396 20.9688 69.8438 20.9062C67.5312 20.8229 65.4583 21.8958 63.625 24.125L59.4062 48H50.5938L56.4688 14.1875L64.7188 14.1562ZM105.25 13.5625C108.229 13.6042 110.792 14.375 112.938 15.875C115.104 17.3542 116.688 19.4062 117.688 22.0312C118.708 24.6354 119.073 27.5312 118.781 30.7188C118.302 36.0938 116.427 40.4479 113.156 43.7812C109.906 47.0938 105.885 48.7083 101.094 48.625C98.1562 48.5833 95.6146 47.8333 93.4688 46.375C91.3229 44.8958 89.7396 42.8542 88.7188 40.25C87.6979 37.6458 87.3333 34.7708 87.625 31.625C88.1667 26.0417 90.0625 21.6042 93.3125 18.3125C96.5625 15.0208 100.542 13.4375 105.25 13.5625ZM96.3438 34.8438C96.3854 36.8438 96.8542 38.4271 97.75 39.5938C98.6458 40.7396 99.9062 41.3333 101.531 41.375C104.24 41.4583 106.365 40.2188 107.906 37.6562C109.448 35.0729 110.167 31.6875 110.062 27.5C109.979 25.5 109.49 23.9062 108.594 22.7188C107.719 21.5104 106.458 20.8854 104.812 20.8438C102.188 20.7604 100.083 22 98.5 24.5625C96.9375 27.1042 96.2188 30.5312 96.3438 34.8438ZM135.062 36.8438L144.688 14.1875H154.188L137.844 48H129.406L123.625 14.1875H132.562L135.062 36.8438ZM171.375 13.5625C174.354 13.6042 176.917 14.375 179.062 15.875C181.229 17.3542 182.812 19.4062 183.812 22.0312C184.833 24.6354 185.198 27.5312 184.906 30.7188C184.427 36.0938 182.552 40.4479 179.281 43.7812C176.031 47.0938 172.01 48.7083 167.219 48.625C164.281 48.5833 161.74 47.8333 159.594 46.375C157.448 44.8958 155.865 42.8542 154.844 40.25C153.823 37.6458 153.458 34.7708 153.75 31.625C154.292 26.0417 156.188 21.6042 159.438 18.3125C162.688 15.0208 166.667 13.4375 171.375 13.5625ZM162.469 34.8438C162.51 36.8438 162.979 38.4271 163.875 39.5938C164.771 40.7396 166.031 41.3333 167.656 41.375C170.365 41.4583 172.49 40.2188 174.031 37.6562C175.573 35.0729 176.292 31.6875 176.188 27.5C176.104 25.5 175.615 23.9062 174.719 22.7188C173.844 21.5104 172.583 20.8854 170.938 20.8438C168.312 20.7604 166.208 22 164.625 24.5625C163.062 27.1042 162.344 30.5312 162.469 34.8438Z" fill="#1F1251"/>
</svg>
