<svg width="242" height="61" viewBox="0 0 242 61" fill="none" xmlns="http://www.w3.org/2000/svg">
<path d="M12.3125 2.5L24 35.5L35.625 2.5H47.9375V48H38.5312V35.5625L39.4688 14.0938L27.1875 48H20.75L8.5 14.125L9.4375 35.5625V48H0.0625V2.5H12.3125ZM75.125 48C74.7083 47.1875 74.4062 46.1771 74.2188 44.9688C72.0312 47.4062 69.1875 48.625 65.6875 48.625C62.375 48.625 59.625 47.6667 57.4375 45.75C55.2708 43.8333 54.1875 41.4167 54.1875 38.5C54.1875 34.9167 55.5104 32.1667 58.1562 30.25C60.8229 28.3333 64.6667 27.3646 69.6875 27.3438H73.8438V25.4062C73.8438 23.8438 73.4375 22.5938 72.625 21.6562C71.8333 20.7188 70.5729 20.25 68.8438 20.25C67.3229 20.25 66.125 20.6146 65.25 21.3438C64.3958 22.0729 63.9688 23.0729 63.9688 24.3438H54.9375C54.9375 22.3854 55.5417 20.5729 56.75 18.9062C57.9583 17.2396 59.6667 15.9375 61.875 15C64.0833 14.0417 66.5625 13.5625 69.3125 13.5625C73.4792 13.5625 76.7812 14.6146 79.2188 16.7188C81.6771 18.8021 82.9062 21.7396 82.9062 25.5312V40.1875C82.9271 43.3958 83.375 45.8229 84.25 47.4688V48H75.125ZM67.6562 41.7188C68.9896 41.7188 70.2188 41.4271 71.3438 40.8438C72.4688 40.2396 73.3021 39.4375 73.8438 38.4375V32.625H70.4688C65.9479 32.625 63.5417 34.1875 63.25 37.3125L63.2188 37.8438C63.2188 38.9688 63.6146 39.8958 64.4062 40.625C65.1979 41.3542 66.2812 41.7188 67.6562 41.7188ZM108.156 38.6562C108.156 37.5521 107.604 36.6875 106.5 36.0625C105.417 35.4167 103.667 34.8438 101.25 34.3438C93.2083 32.6562 89.1875 29.2396 89.1875 24.0938C89.1875 21.0938 90.4271 18.5938 92.9062 16.5938C95.4062 14.5729 98.6667 13.5625 102.688 13.5625C106.979 13.5625 110.406 14.5729 112.969 16.5938C115.552 18.6146 116.844 21.2396 116.844 24.4688H107.812C107.812 23.1771 107.396 22.1146 106.562 21.2812C105.729 20.4271 104.427 20 102.656 20C101.135 20 99.9583 20.3438 99.125 21.0312C98.2917 21.7188 97.875 22.5938 97.875 23.6562C97.875 24.6562 98.3438 25.4688 99.2812 26.0938C100.24 26.6979 101.844 27.2292 104.094 27.6875C106.344 28.125 108.24 28.625 109.781 29.1875C114.552 30.9375 116.938 33.9688 116.938 38.2812C116.938 41.3646 115.615 43.8646 112.969 45.7812C110.323 47.6771 106.906 48.625 102.719 48.625C99.8854 48.625 97.3646 48.125 95.1562 47.125C92.9688 46.1042 91.25 44.7188 90 42.9688C88.75 41.1979 88.125 39.2917 88.125 37.25H96.6875C96.7708 38.8542 97.3646 40.0833 98.4688 40.9375C99.5729 41.7917 101.052 42.2188 102.906 42.2188C104.635 42.2188 105.938 41.8958 106.812 41.25C107.708 40.5833 108.156 39.7188 108.156 38.6562ZM153.219 31.4062C153.219 36.6146 152.031 40.7917 149.656 43.9375C147.302 47.0625 144.115 48.625 140.094 48.625C136.677 48.625 133.917 47.4375 131.812 45.0625V61H122.781V14.1875H131.156L131.469 17.5C133.656 14.875 136.51 13.5625 140.031 13.5625C144.198 13.5625 147.438 15.1042 149.75 18.1875C152.062 21.2708 153.219 25.5208 153.219 30.9375V31.4062ZM144.188 30.75C144.188 27.6042 143.625 25.1771 142.5 23.4688C141.396 21.7604 139.781 20.9062 137.656 20.9062C134.823 20.9062 132.875 21.9896 131.812 24.1562V38C132.917 40.2292 134.885 41.3438 137.719 41.3438C142.031 41.3438 144.188 37.8125 144.188 30.75ZM168.375 48H159.312V14.1875H168.375V48ZM158.781 5.4375C158.781 4.08333 159.229 2.96875 160.125 2.09375C161.042 1.21875 162.281 0.78125 163.844 0.78125C165.385 0.78125 166.615 1.21875 167.531 2.09375C168.448 2.96875 168.906 4.08333 168.906 5.4375C168.906 6.8125 168.438 7.9375 167.5 8.8125C166.583 9.6875 165.365 10.125 163.844 10.125C162.323 10.125 161.094 9.6875 160.156 8.8125C159.24 7.9375 158.781 6.8125 158.781 5.4375ZM174.438 30.7812C174.438 27.4271 175.083 24.4375 176.375 21.8125C177.667 19.1875 179.521 17.1562 181.938 15.7188C184.375 14.2812 187.198 13.5625 190.406 13.5625C194.969 13.5625 198.688 14.9583 201.562 17.75C204.458 20.5417 206.073 24.3333 206.406 29.125L206.469 31.4375C206.469 36.625 205.021 40.7917 202.125 43.9375C199.229 47.0625 195.344 48.625 190.469 48.625C185.594 48.625 181.698 47.0625 178.781 43.9375C175.885 40.8125 174.438 36.5625 174.438 31.1875V30.7812ZM183.469 31.4375C183.469 34.6458 184.073 37.1042 185.281 38.8125C186.49 40.5 188.219 41.3438 190.469 41.3438C192.656 41.3438 194.365 40.5104 195.594 38.8438C196.823 37.1562 197.438 34.4688 197.438 30.7812C197.438 27.6354 196.823 25.1979 195.594 23.4688C194.365 21.7396 192.635 20.875 190.406 20.875C188.198 20.875 186.49 21.7396 185.281 23.4688C184.073 25.1771 183.469 27.8333 183.469 31.4375ZM220.344 14.1875L220.625 18.0938C223.042 15.0729 226.281 13.5625 230.344 13.5625C233.927 13.5625 236.594 14.6146 238.344 16.7188C240.094 18.8229 240.99 21.9688 241.031 26.1562V48H232V26.375C232 24.4583 231.583 23.0729 230.75 22.2188C229.917 21.3438 228.531 20.9062 226.594 20.9062C224.052 20.9062 222.146 21.9896 220.875 24.1562V48H211.844V14.1875H220.344Z" fill="#1E1F20"/>
</svg>
