<svg width="204" height="62" viewBox="0 0 204 62" fill="none" xmlns="http://www.w3.org/2000/svg">
<path d="M12.3125 2.5L24 35.5L35.625 2.5H47.9375V48H38.5312V35.5625L39.4688 14.0938L27.1875 48H20.75L8.5 14.125L9.4375 35.5625V48H0.0625V2.5H12.3125ZM65.0625 48H56V14.1875H65.0625V48ZM55.4688 5.4375C55.4688 4.08333 55.9167 2.96875 56.8125 2.09375C57.7292 1.21875 58.9688 0.78125 60.5312 0.78125C62.0729 0.78125 63.3021 1.21875 64.2188 2.09375C65.1354 2.96875 65.5938 4.08333 65.5938 5.4375C65.5938 6.8125 65.125 7.9375 64.1875 8.8125C63.2708 9.6875 62.0521 10.125 60.5312 10.125C59.0104 10.125 57.7812 9.6875 56.8438 8.8125C55.9271 7.9375 55.4688 6.8125 55.4688 5.4375ZM85.1562 35.2188L91.4062 14.1875H101.094L87.5 53.25L86.75 55.0312C84.7292 59.4479 81.3958 61.6562 76.75 61.6562C75.4375 61.6562 74.1042 61.4583 72.75 61.0625V54.2188L74.125 54.25C75.8333 54.25 77.1042 53.9896 77.9375 53.4688C78.7917 52.9479 79.4583 52.0833 79.9375 50.875L81 48.0938L69.1562 14.1875H78.875L85.1562 35.2188ZM123.75 48C123.333 47.1875 123.031 46.1771 122.844 44.9688C120.656 47.4062 117.812 48.625 114.312 48.625C111 48.625 108.25 47.6667 106.062 45.75C103.896 43.8333 102.812 41.4167 102.812 38.5C102.812 34.9167 104.135 32.1667 106.781 30.25C109.448 28.3333 113.292 27.3646 118.312 27.3438H122.469V25.4062C122.469 23.8438 122.062 22.5938 121.25 21.6562C120.458 20.7188 119.198 20.25 117.469 20.25C115.948 20.25 114.75 20.6146 113.875 21.3438C113.021 22.0729 112.594 23.0729 112.594 24.3438H103.562C103.562 22.3854 104.167 20.5729 105.375 18.9062C106.583 17.2396 108.292 15.9375 110.5 15C112.708 14.0417 115.188 13.5625 117.938 13.5625C122.104 13.5625 125.406 14.6146 127.844 16.7188C130.302 18.8021 131.531 21.7396 131.531 25.5312V40.1875C131.552 43.3958 132 45.8229 132.875 47.4688V48H123.75ZM116.281 41.7188C117.615 41.7188 118.844 41.4271 119.969 40.8438C121.094 40.2396 121.927 39.4375 122.469 38.4375V32.625H119.094C114.573 32.625 112.167 34.1875 111.875 37.3125L111.844 37.8438C111.844 38.9688 112.24 39.8958 113.031 40.625C113.823 41.3542 114.906 41.7188 116.281 41.7188ZM150.75 34.4375L147.5 37.6875V48H138.469V0H147.5V26.5938L149.25 24.3438L157.906 14.1875H168.75L156.531 28.2812L169.812 48H159.438L150.75 34.4375ZM171.25 30.7812C171.25 27.4271 171.896 24.4375 173.188 21.8125C174.479 19.1875 176.333 17.1562 178.75 15.7188C181.188 14.2812 184.01 13.5625 187.219 13.5625C191.781 13.5625 195.5 14.9583 198.375 17.75C201.271 20.5417 202.885 24.3333 203.219 29.125L203.281 31.4375C203.281 36.625 201.833 40.7917 198.938 43.9375C196.042 47.0625 192.156 48.625 187.281 48.625C182.406 48.625 178.51 47.0625 175.594 43.9375C172.698 40.8125 171.25 36.5625 171.25 31.1875V30.7812ZM180.281 31.4375C180.281 34.6458 180.885 37.1042 182.094 38.8125C183.302 40.5 185.031 41.3438 187.281 41.3438C189.469 41.3438 191.177 40.5104 192.406 38.8438C193.635 37.1562 194.25 34.4688 194.25 30.7812C194.25 27.6354 193.635 25.1979 192.406 23.4688C191.177 21.7396 189.448 20.875 187.219 20.875C185.01 20.875 183.302 21.7396 182.094 23.4688C180.885 25.1771 180.281 27.8333 180.281 31.4375Z" fill="#024EA8"/>
</svg>
