<svg width="296" height="49" viewBox="0 0 296 49" fill="none" xmlns="http://www.w3.org/2000/svg">
<path d="M9.4375 31.9688V48H0.0625V2.5H17.8125C21.2292 2.5 24.2292 3.125 26.8125 4.375C29.4167 5.625 31.4167 7.40625 32.8125 9.71875C34.2083 12.0104 34.9062 14.625 34.9062 17.5625C34.9062 22.0208 33.375 25.5417 30.3125 28.125C27.2708 30.6875 23.0521 31.9688 17.6562 31.9688H9.4375ZM9.4375 24.375H17.8125C20.2917 24.375 22.1771 23.7917 23.4688 22.625C24.7812 21.4583 25.4375 19.7917 25.4375 17.625C25.4375 15.3958 24.7812 13.5938 23.4688 12.2188C22.1562 10.8438 20.3438 10.1354 18.0312 10.0938H9.4375V24.375ZM60 48C59.5833 47.1875 59.2812 46.1771 59.0938 44.9688C56.9062 47.4062 54.0625 48.625 50.5625 48.625C47.25 48.625 44.5 47.6667 42.3125 45.75C40.1458 43.8333 39.0625 41.4167 39.0625 38.5C39.0625 34.9167 40.3854 32.1667 43.0312 30.25C45.6979 28.3333 49.5417 27.3646 54.5625 27.3438H58.7188V25.4062C58.7188 23.8438 58.3125 22.5938 57.5 21.6562C56.7083 20.7188 55.4479 20.25 53.7188 20.25C52.1979 20.25 51 20.6146 50.125 21.3438C49.2708 22.0729 48.8438 23.0729 48.8438 24.3438H39.8125C39.8125 22.3854 40.4167 20.5729 41.625 18.9062C42.8333 17.2396 44.5417 15.9375 46.75 15C48.9583 14.0417 51.4375 13.5625 54.1875 13.5625C58.3542 13.5625 61.6562 14.6146 64.0938 16.7188C66.5521 18.8021 67.7812 21.7396 67.7812 25.5312V40.1875C67.8021 43.3958 68.25 45.8229 69.125 47.4688V48H60ZM52.5312 41.7188C53.8646 41.7188 55.0938 41.4271 56.2188 40.8438C57.3438 40.2396 58.1771 39.4375 58.7188 38.4375V32.625H55.3438C50.8229 32.625 48.4167 34.1875 48.125 37.3125L48.0938 37.8438C48.0938 38.9688 48.4896 39.8958 49.2812 40.625C50.0729 41.3542 51.1562 41.7188 52.5312 41.7188ZM83.0312 14.1875L83.3125 18.0938C85.7292 15.0729 88.9688 13.5625 93.0312 13.5625C96.6146 13.5625 99.2812 14.6146 101.031 16.7188C102.781 18.8229 103.677 21.9688 103.719 26.1562V48H94.6875V26.375C94.6875 24.4583 94.2708 23.0729 93.4375 22.2188C92.6042 21.3438 91.2188 20.9062 89.2812 20.9062C86.7396 20.9062 84.8333 21.9896 83.5625 24.1562V48H74.5312V14.1875H83.0312ZM130.188 48C129.771 47.1875 129.469 46.1771 129.281 44.9688C127.094 47.4062 124.25 48.625 120.75 48.625C117.438 48.625 114.688 47.6667 112.5 45.75C110.333 43.8333 109.25 41.4167 109.25 38.5C109.25 34.9167 110.573 32.1667 113.219 30.25C115.885 28.3333 119.729 27.3646 124.75 27.3438H128.906V25.4062C128.906 23.8438 128.5 22.5938 127.688 21.6562C126.896 20.7188 125.635 20.25 123.906 20.25C122.385 20.25 121.188 20.6146 120.312 21.3438C119.458 22.0729 119.031 23.0729 119.031 24.3438H110C110 22.3854 110.604 20.5729 111.812 18.9062C113.021 17.2396 114.729 15.9375 116.938 15C119.146 14.0417 121.625 13.5625 124.375 13.5625C128.542 13.5625 131.844 14.6146 134.281 16.7188C136.74 18.8021 137.969 21.7396 137.969 25.5312V40.1875C137.99 43.3958 138.438 45.8229 139.312 47.4688V48H130.188ZM122.719 41.7188C124.052 41.7188 125.281 41.4271 126.406 40.8438C127.531 40.2396 128.365 39.4375 128.906 38.4375V32.625H125.531C121.01 32.625 118.604 34.1875 118.312 37.3125L118.281 37.8438C118.281 38.9688 118.677 39.8958 119.469 40.625C120.26 41.3542 121.344 41.7188 122.719 41.7188ZM163.219 38.6562C163.219 37.5521 162.667 36.6875 161.562 36.0625C160.479 35.4167 158.729 34.8438 156.312 34.3438C148.271 32.6562 144.25 29.2396 144.25 24.0938C144.25 21.0938 145.49 18.5938 147.969 16.5938C150.469 14.5729 153.729 13.5625 157.75 13.5625C162.042 13.5625 165.469 14.5729 168.031 16.5938C170.615 18.6146 171.906 21.2396 171.906 24.4688H162.875C162.875 23.1771 162.458 22.1146 161.625 21.2812C160.792 20.4271 159.49 20 157.719 20C156.198 20 155.021 20.3438 154.188 21.0312C153.354 21.7188 152.938 22.5938 152.938 23.6562C152.938 24.6562 153.406 25.4688 154.344 26.0938C155.302 26.6979 156.906 27.2292 159.156 27.6875C161.406 28.125 163.302 28.625 164.844 29.1875C169.615 30.9375 172 33.9688 172 38.2812C172 41.3646 170.677 43.8646 168.031 45.7812C165.385 47.6771 161.969 48.625 157.781 48.625C154.948 48.625 152.427 48.125 150.219 47.125C148.031 46.1042 146.312 44.7188 145.062 42.9688C143.812 41.1979 143.188 39.2917 143.188 37.25H151.75C151.833 38.8542 152.427 40.0833 153.531 40.9375C154.635 41.7917 156.115 42.2188 157.969 42.2188C159.698 42.2188 161 41.8958 161.875 41.25C162.771 40.5833 163.219 39.7188 163.219 38.6562ZM176.438 30.7812C176.438 27.4271 177.083 24.4375 178.375 21.8125C179.667 19.1875 181.521 17.1562 183.938 15.7188C186.375 14.2812 189.198 13.5625 192.406 13.5625C196.969 13.5625 200.688 14.9583 203.562 17.75C206.458 20.5417 208.073 24.3333 208.406 29.125L208.469 31.4375C208.469 36.625 207.021 40.7917 204.125 43.9375C201.229 47.0625 197.344 48.625 192.469 48.625C187.594 48.625 183.698 47.0625 180.781 43.9375C177.885 40.8125 176.438 36.5625 176.438 31.1875V30.7812ZM185.469 31.4375C185.469 34.6458 186.073 37.1042 187.281 38.8125C188.49 40.5 190.219 41.3438 192.469 41.3438C194.656 41.3438 196.365 40.5104 197.594 38.8438C198.823 37.1562 199.438 34.4688 199.438 30.7812C199.438 27.6354 198.823 25.1979 197.594 23.4688C196.365 21.7396 194.635 20.875 192.406 20.875C190.198 20.875 188.49 21.7396 187.281 23.4688C186.073 25.1771 185.469 27.8333 185.469 31.4375ZM222.344 14.1875L222.625 18.0938C225.042 15.0729 228.281 13.5625 232.344 13.5625C235.927 13.5625 238.594 14.6146 240.344 16.7188C242.094 18.8229 242.99 21.9688 243.031 26.1562V48H234V26.375C234 24.4583 233.583 23.0729 232.75 22.2188C231.917 21.3438 230.531 20.9062 228.594 20.9062C226.052 20.9062 224.146 21.9896 222.875 24.1562V48H213.844V14.1875H222.344ZM259.438 48H250.375V14.1875H259.438V48ZM249.844 5.4375C249.844 4.08333 250.292 2.96875 251.188 2.09375C252.104 1.21875 253.344 0.78125 254.906 0.78125C256.448 0.78125 257.677 1.21875 258.594 2.09375C259.51 2.96875 259.969 4.08333 259.969 5.4375C259.969 6.8125 259.5 7.9375 258.562 8.8125C257.646 9.6875 256.427 10.125 254.906 10.125C253.385 10.125 252.156 9.6875 251.219 8.8125C250.302 7.9375 249.844 6.8125 249.844 5.4375ZM280.969 41.3438C282.635 41.3438 283.99 40.8854 285.031 39.9688C286.073 39.0521 286.615 37.8333 286.656 36.3125H295.125C295.104 38.6042 294.479 40.7083 293.25 42.625C292.021 44.5208 290.333 46 288.188 47.0625C286.062 48.1042 283.708 48.625 281.125 48.625C276.292 48.625 272.479 47.0938 269.688 44.0312C266.896 40.9479 265.5 36.6979 265.5 31.2812V30.6875C265.5 25.4792 266.885 21.3229 269.656 18.2188C272.427 15.1146 276.229 13.5625 281.062 13.5625C285.292 13.5625 288.677 14.7708 291.219 17.1875C293.781 19.5833 295.083 22.7812 295.125 26.7812H286.656C286.615 25.0312 286.073 23.6146 285.031 22.5312C283.99 21.4271 282.615 20.875 280.906 20.875C278.802 20.875 277.208 21.6458 276.125 23.1875C275.062 24.7083 274.531 27.1875 274.531 30.625V31.5625C274.531 35.0417 275.062 37.5417 276.125 39.0625C277.188 40.5833 278.802 41.3438 280.969 41.3438Z" fill="#024EA8"/>
</svg>
