<svg width="235" height="62" viewBox="0 0 235 62" fill="none" xmlns="http://www.w3.org/2000/svg">
<path d="M9.4375 31.9688V48H0.0625V2.5H17.8125C21.2292 2.5 24.2292 3.125 26.8125 4.375C29.4167 5.625 31.4167 7.40625 32.8125 9.71875C34.2083 12.0104 34.9062 14.625 34.9062 17.5625C34.9062 22.0208 33.375 25.5417 30.3125 28.125C27.2708 30.6875 23.0521 31.9688 17.6562 31.9688H9.4375ZM9.4375 24.375H17.8125C20.2917 24.375 22.1771 23.7917 23.4688 22.625C24.7812 21.4583 25.4375 19.7917 25.4375 17.625C25.4375 15.3958 24.7812 13.5938 23.4688 12.2188C22.1562 10.8438 20.3438 10.1354 18.0312 10.0938H9.4375V24.375ZM38.9375 30.7812C38.9375 27.4271 39.5833 24.4375 40.875 21.8125C42.1667 19.1875 44.0208 17.1562 46.4375 15.7188C48.875 14.2812 51.6979 13.5625 54.9062 13.5625C59.4688 13.5625 63.1875 14.9583 66.0625 17.75C68.9583 20.5417 70.5729 24.3333 70.9062 29.125L70.9688 31.4375C70.9688 36.625 69.5208 40.7917 66.625 43.9375C63.7292 47.0625 59.8438 48.625 54.9688 48.625C50.0938 48.625 46.1979 47.0625 43.2812 43.9375C40.3854 40.8125 38.9375 36.5625 38.9375 31.1875V30.7812ZM47.9688 31.4375C47.9688 34.6458 48.5729 37.1042 49.7812 38.8125C50.9896 40.5 52.7188 41.3438 54.9688 41.3438C57.1562 41.3438 58.8646 40.5104 60.0938 38.8438C61.3229 37.1562 61.9375 34.4688 61.9375 30.7812C61.9375 27.6354 61.3229 25.1979 60.0938 23.4688C58.8646 21.7396 57.1354 20.875 54.9062 20.875C52.6979 20.875 50.9896 21.7396 49.7812 23.4688C48.5729 25.1771 47.9688 27.8333 47.9688 31.4375ZM86.0625 48H77V0H86.0625V48ZM106.156 35.2188L112.406 14.1875H122.094L108.5 53.25L107.75 55.0312C105.729 59.4479 102.396 61.6562 97.75 61.6562C96.4375 61.6562 95.1042 61.4583 93.75 61.0625V54.2188L95.125 54.25C96.8333 54.25 98.1042 53.9896 98.9375 53.4688C99.7917 52.9479 100.458 52.0833 100.938 50.875L102 48.0938L90.1562 14.1875H99.875L106.156 35.2188ZM136.469 5.875V14.1875H142.25V20.8125H136.469V37.6875C136.469 38.9375 136.708 39.8333 137.188 40.375C137.667 40.9167 138.583 41.1875 139.938 41.1875C140.938 41.1875 141.823 41.1146 142.594 40.9688V47.8125C140.823 48.3542 139 48.625 137.125 48.625C130.792 48.625 127.562 45.4271 127.438 39.0312V20.8125H122.5V14.1875H127.438V5.875H136.469ZM166.281 22.6562C165.052 22.4896 163.969 22.4062 163.031 22.4062C159.615 22.4062 157.375 23.5625 156.312 25.875V48H147.281V14.1875H155.812L156.062 18.2188C157.875 15.1146 160.385 13.5625 163.594 13.5625C164.594 13.5625 165.531 13.6979 166.406 13.9688L166.281 22.6562ZM168.125 30.7812C168.125 27.4271 168.771 24.4375 170.062 21.8125C171.354 19.1875 173.208 17.1562 175.625 15.7188C178.062 14.2812 180.885 13.5625 184.094 13.5625C188.656 13.5625 192.375 14.9583 195.25 17.75C198.146 20.5417 199.76 24.3333 200.094 29.125L200.156 31.4375C200.156 36.625 198.708 40.7917 195.812 43.9375C192.917 47.0625 189.031 48.625 184.156 48.625C179.281 48.625 175.385 47.0625 172.469 43.9375C169.573 40.8125 168.125 36.5625 168.125 31.1875V30.7812ZM177.156 31.4375C177.156 34.6458 177.76 37.1042 178.969 38.8125C180.177 40.5 181.906 41.3438 184.156 41.3438C186.344 41.3438 188.052 40.5104 189.281 38.8438C190.51 37.1562 191.125 34.4688 191.125 30.7812C191.125 27.6354 190.51 25.1979 189.281 23.4688C188.052 21.7396 186.323 20.875 184.094 20.875C181.885 20.875 180.177 21.7396 178.969 23.4688C177.76 25.1771 177.156 27.8333 177.156 31.4375ZM214.031 14.1875L214.312 18.0938C216.729 15.0729 219.969 13.5625 224.031 13.5625C227.615 13.5625 230.281 14.6146 232.031 16.7188C233.781 18.8229 234.677 21.9688 234.719 26.1562V48H225.688V26.375C225.688 24.4583 225.271 23.0729 224.438 22.2188C223.604 21.3438 222.219 20.9062 220.281 20.9062C217.74 20.9062 215.833 21.9896 214.562 24.1562V48H205.531V14.1875H214.031Z" fill="#F72222"/>
</svg>
